<svg xmlns="http://www.w3.org/2000/svg" viewBox="0 0 500 660">
  <rect x="0" y="0" width="500" height="660" rx="30" fill="#ee8a5f"/>
  <path d="M 18.0 18.0 A 19.3 19.3 0 0 0 56.7 18.0 A 19.3 19.3 0 0 0 95.3 18.0 A 19.3 19.3 0 0 0 134.0 18.0 A 19.3 19.3 0 0 0 172.7 18.0 A 19.3 19.3 0 0 0 211.3 18.0 A 19.3 19.3 0 0 0 250.0 18.0 A 19.3 19.3 0 0 0 288.7 18.0 A 19.3 19.3 0 0 0 327.3 18.0 A 19.3 19.3 0 0 0 366.0 18.0 A 19.3 19.3 0 0 0 404.7 18.0 A 19.3 19.3 0 0 0 443.3 18.0 A 19.3 19.3 0 0 0 482.0 18.0 A 19.5 19.5 0 0 0 482.0 57.0 A 19.5 19.5 0 0 0 482.0 96.0 A 19.5 19.5 0 0 0 482.0 135.0 A 19.5 19.5 0 0 0 482.0 174.0 A 19.5 19.5 0 0 0 482.0 213.0 A 19.5 19.5 0 0 0 482.0 252.0 A 19.5 19.5 0 0 0 482.0 291.0 A 19.5 19.5 0 0 0 482.0 330.0 A 19.5 19.5 0 0 0 482.0 369.0 A 19.5 19.5 0 0 0 482.0 408.0 A 19.5 19.5 0 0 0 482.0 447.0 A 19.5 19.5 0 0 0 482.0 486.0 A 19.5 19.5 0 0 0 482.0 525.0 A 19.5 19.5 0 0 0 482.0 564.0 A 19.5 19.5 0 0 0 482.0 603.0 A 19.5 19.5 0 0 0 482.0 642.0 A 19.3 19.3 0 0 0 443.3 642.0 A 19.3 19.3 0 0 0 404.7 642.0 A 19.3 19.3 0 0 0 366.0 642.0 A 19.3 19.3 0 0 0 327.3 642.0 A 19.3 19.3 0 0 0 288.7 642.0 A 19.3 19.3 0 0 0 250.0 642.0 A 19.3 19.3 0 0 0 211.3 642.0 A 19.3 19.3 0 0 0 172.7 642.0 A 19.3 19.3 0 0 0 134.0 642.0 A 19.3 19.3 0 0 0 95.3 642.0 A 19.3 19.3 0 0 0 56.7 642.0 A 19.3 19.3 0 0 0 18.0 642.0 A 19.5 19.5 0 0 0 18.0 603.0 A 19.5 19.5 0 0 0 18.0 564.0 A 19.5 19.5 0 0 0 18.0 525.0 A 19.5 19.5 0 0 0 18.0 486.0 A 19.5 19.5 0 0 0 18.0 447.0 A 19.5 19.5 0 0 0 18.0 408.0 A 19.5 19.5 0 0 0 18.0 369.0 A 19.5 19.5 0 0 0 18.0 330.0 A 19.5 19.5 0 0 0 18.0 291.0 A 19.5 19.5 0 0 0 18.0 252.0 A 19.5 19.5 0 0 0 18.0 213.0 A 19.5 19.5 0 0 0 18.0 174.0 A 19.5 19.5 0 0 0 18.0 135.0 A 19.5 19.5 0 0 0 18.0 96.0 A 19.5 19.5 0 0 0 18.0 57.0 A 19.5 19.5 0 0 0 18.0 18.0 Z" fill="#f7c86e" stroke="#fdf6ea" stroke-width="5" stroke-linejoin="round"/>
  <path d="M 40.0 40.0 A 17.5 17.5 0 0 0 75.0 40.0 A 17.5 17.5 0 0 0 110.0 40.0 A 17.5 17.5 0 0 0 145.0 40.0 A 17.5 17.5 0 0 0 180.0 40.0 A 17.5 17.5 0 0 0 215.0 40.0 A 17.5 17.5 0 0 0 250.0 40.0 A 17.5 17.5 0 0 0 285.0 40.0 A 17.5 17.5 0 0 0 320.0 40.0 A 17.5 17.5 0 0 0 355.0 40.0 A 17.5 17.5 0 0 0 390.0 40.0 A 17.5 17.5 0 0 0 425.0 40.0 A 17.5 17.5 0 0 0 460.0 40.0 A 18.1 18.1 0 0 0 460.0 76.2 A 18.1 18.1 0 0 0 460.0 112.5 A 18.1 18.1 0 0 0 460.0 148.8 A 18.1 18.1 0 0 0 460.0 185.0 A 18.1 18.1 0 0 0 460.0 221.2 A 18.1 18.1 0 0 0 460.0 257.5 A 18.1 18.1 0 0 0 460.0 293.8 A 18.1 18.1 0 0 0 460.0 330.0 A 18.1 18.1 0 0 0 460.0 366.2 A 18.1 18.1 0 0 0 460.0 402.5 A 18.1 18.1 0 0 0 460.0 438.8 A 18.1 18.1 0 0 0 460.0 475.0 A 18.1 18.1 0 0 0 460.0 511.2 A 18.1 18.1 0 0 0 460.0 547.5 A 18.1 18.1 0 0 0 460.0 583.8 A 18.1 18.1 0 0 0 460.0 620.0 A 17.5 17.5 0 0 0 425.0 620.0 A 17.5 17.5 0 0 0 390.0 620.0 A 17.5 17.5 0 0 0 355.0 620.0 A 17.5 17.5 0 0 0 320.0 620.0 A 17.5 17.5 0 0 0 285.0 620.0 A 17.5 17.5 0 0 0 250.0 620.0 A 17.5 17.5 0 0 0 215.0 620.0 A 17.5 17.5 0 0 0 180.0 620.0 A 17.5 17.5 0 0 0 145.0 620.0 A 17.5 17.5 0 0 0 110.0 620.0 A 17.5 17.5 0 0 0 75.0 620.0 A 17.5 17.5 0 0 0 40.0 620.0 A 18.1 18.1 0 0 0 40.0 583.8 A 18.1 18.1 0 0 0 40.0 547.5 A 18.1 18.1 0 0 0 40.0 511.2 A 18.1 18.1 0 0 0 40.0 475.0 A 18.1 18.1 0 0 0 40.0 438.8 A 18.1 18.1 0 0 0 40.0 402.5 A 18.1 18.1 0 0 0 40.0 366.2 A 18.1 18.1 0 0 0 40.0 330.0 A 18.1 18.1 0 0 0 40.0 293.8 A 18.1 18.1 0 0 0 40.0 257.5 A 18.1 18.1 0 0 0 40.0 221.2 A 18.1 18.1 0 0 0 40.0 185.0 A 18.1 18.1 0 0 0 40.0 148.8 A 18.1 18.1 0 0 0 40.0 112.5 A 18.1 18.1 0 0 0 40.0 76.2 A 18.1 18.1 0 0 0 40.0 40.0 Z" fill="#f6bcd1" stroke="#fdf6ea" stroke-width="5" stroke-linejoin="round"/>
  <path d="M 60.0 60.0 A 14.6 14.6 0 0 0 89.2 60.0 A 14.6 14.6 0 0 0 118.5 60.0 A 14.6 14.6 0 0 0 147.7 60.0 A 14.6 14.6 0 0 0 176.9 60.0 A 14.6 14.6 0 0 0 206.2 60.0 A 14.6 14.6 0 0 0 235.4 60.0 A 14.6 14.6 0 0 0 264.6 60.0 A 14.6 14.6 0 0 0 293.8 60.0 A 14.6 14.6 0 0 0 323.1 60.0 A 14.6 14.6 0 0 0 352.3 60.0 A 14.6 14.6 0 0 0 381.5 60.0 A 14.6 14.6 0 0 0 410.8 60.0 A 14.6 14.6 0 0 0 440.0 60.0 A 15.0 15.0 0 0 0 440.0 90.0 A 15.0 15.0 0 0 0 440.0 120.0 A 15.0 15.0 0 0 0 440.0 150.0 A 15.0 15.0 0 0 0 440.0 180.0 A 15.0 15.0 0 0 0 440.0 210.0 A 15.0 15.0 0 0 0 440.0 240.0 A 15.0 15.0 0 0 0 440.0 270.0 A 15.0 15.0 0 0 0 440.0 300.0 A 15.0 15.0 0 0 0 440.0 330.0 A 15.0 15.0 0 0 0 440.0 360.0 A 15.0 15.0 0 0 0 440.0 390.0 A 15.0 15.0 0 0 0 440.0 420.0 A 15.0 15.0 0 0 0 440.0 450.0 A 15.0 15.0 0 0 0 440.0 480.0 A 15.0 15.0 0 0 0 440.0 510.0 A 15.0 15.0 0 0 0 440.0 540.0 A 15.0 15.0 0 0 0 440.0 570.0 A 15.0 15.0 0 0 0 440.0 600.0 A 14.6 14.6 0 0 0 410.8 600.0 A 14.6 14.6 0 0 0 381.5 600.0 A 14.6 14.6 0 0 0 352.3 600.0 A 14.6 14.6 0 0 0 323.1 600.0 A 14.6 14.6 0 0 0 293.8 600.0 A 14.6 14.6 0 0 0 264.6 600.0 A 14.6 14.6 0 0 0 235.4 600.0 A 14.6 14.6 0 0 0 206.2 600.0 A 14.6 14.6 0 0 0 176.9 600.0 A 14.6 14.6 0 0 0 147.7 600.0 A 14.6 14.6 0 0 0 118.5 600.0 A 14.6 14.6 0 0 0 89.2 600.0 A 14.6 14.6 0 0 0 60.0 600.0 A 15.0 15.0 0 0 0 60.0 570.0 A 15.0 15.0 0 0 0 60.0 540.0 A 15.0 15.0 0 0 0 60.0 510.0 A 15.0 15.0 0 0 0 60.0 480.0 A 15.0 15.0 0 0 0 60.0 450.0 A 15.0 15.0 0 0 0 60.0 420.0 A 15.0 15.0 0 0 0 60.0 390.0 A 15.0 15.0 0 0 0 60.0 360.0 A 15.0 15.0 0 0 0 60.0 330.0 A 15.0 15.0 0 0 0 60.0 300.0 A 15.0 15.0 0 0 0 60.0 270.0 A 15.0 15.0 0 0 0 60.0 240.0 A 15.0 15.0 0 0 0 60.0 210.0 A 15.0 15.0 0 0 0 60.0 180.0 A 15.0 15.0 0 0 0 60.0 150.0 A 15.0 15.0 0 0 0 60.0 120.0 A 15.0 15.0 0 0 0 60.0 90.0 A 15.0 15.0 0 0 0 60.0 60.0 Z" fill="none" stroke="#e58379" stroke-width="3.5" stroke-linejoin="round"/>
  <rect x="74" y="74" width="352" height="512" rx="22" fill="#fdf6ea"/>
</svg>