<svg xmlns="http://www.w3.org/2000/svg" viewBox="0 0 500 660">
  <rect x="0" y="0" width="500" height="660" rx="26" fill="#e9661f"/>
  <path d="M 20.0 20.0 A 19.2 19.2 0 0 0 58.3 20.0 A 19.2 19.2 0 0 0 96.7 20.0 A 19.2 19.2 0 0 0 135.0 20.0 A 19.2 19.2 0 0 0 173.3 20.0 A 19.2 19.2 0 0 0 211.7 20.0 A 19.2 19.2 0 0 0 250.0 20.0 A 19.2 19.2 0 0 0 288.3 20.0 A 19.2 19.2 0 0 0 326.7 20.0 A 19.2 19.2 0 0 0 365.0 20.0 A 19.2 19.2 0 0 0 403.3 20.0 A 19.2 19.2 0 0 0 441.7 20.0 A 19.2 19.2 0 0 0 480.0 20.0 A 19.4 19.4 0 0 0 480.0 58.8 A 19.4 19.4 0 0 0 480.0 97.5 A 19.4 19.4 0 0 0 480.0 136.2 A 19.4 19.4 0 0 0 480.0 175.0 A 19.4 19.4 0 0 0 480.0 213.8 A 19.4 19.4 0 0 0 480.0 252.5 A 19.4 19.4 0 0 0 480.0 291.2 A 19.4 19.4 0 0 0 480.0 330.0 A 19.4 19.4 0 0 0 480.0 368.8 A 19.4 19.4 0 0 0 480.0 407.5 A 19.4 19.4 0 0 0 480.0 446.2 A 19.4 19.4 0 0 0 480.0 485.0 A 19.4 19.4 0 0 0 480.0 523.8 A 19.4 19.4 0 0 0 480.0 562.5 A 19.4 19.4 0 0 0 480.0 601.2 A 19.4 19.4 0 0 0 480.0 640.0 A 19.2 19.2 0 0 0 441.7 640.0 A 19.2 19.2 0 0 0 403.3 640.0 A 19.2 19.2 0 0 0 365.0 640.0 A 19.2 19.2 0 0 0 326.7 640.0 A 19.2 19.2 0 0 0 288.3 640.0 A 19.2 19.2 0 0 0 250.0 640.0 A 19.2 19.2 0 0 0 211.7 640.0 A 19.2 19.2 0 0 0 173.3 640.0 A 19.2 19.2 0 0 0 135.0 640.0 A 19.2 19.2 0 0 0 96.7 640.0 A 19.2 19.2 0 0 0 58.3 640.0 A 19.2 19.2 0 0 0 20.0 640.0 A 19.4 19.4 0 0 0 20.0 601.2 A 19.4 19.4 0 0 0 20.0 562.5 A 19.4 19.4 0 0 0 20.0 523.8 A 19.4 19.4 0 0 0 20.0 485.0 A 19.4 19.4 0 0 0 20.0 446.2 A 19.4 19.4 0 0 0 20.0 407.5 A 19.4 19.4 0 0 0 20.0 368.8 A 19.4 19.4 0 0 0 20.0 330.0 A 19.4 19.4 0 0 0 20.0 291.2 A 19.4 19.4 0 0 0 20.0 252.5 A 19.4 19.4 0 0 0 20.0 213.8 A 19.4 19.4 0 0 0 20.0 175.0 A 19.4 19.4 0 0 0 20.0 136.2 A 19.4 19.4 0 0 0 20.0 97.5 A 19.4 19.4 0 0 0 20.0 58.8 A 19.4 19.4 0 0 0 20.0 20.0 Z" fill="#f4b52f" stroke="#fdf4e3" stroke-width="5" stroke-linejoin="round"/>
  <path d="M 46.0 46.0 A 18.5 18.5 0 0 0 83.1 46.0 A 18.5 18.5 0 0 0 120.2 46.0 A 18.5 18.5 0 0 0 157.3 46.0 A 18.5 18.5 0 0 0 194.4 46.0 A 18.5 18.5 0 0 0 231.5 46.0 A 18.5 18.5 0 0 0 268.5 46.0 A 18.5 18.5 0 0 0 305.6 46.0 A 18.5 18.5 0 0 0 342.7 46.0 A 18.5 18.5 0 0 0 379.8 46.0 A 18.5 18.5 0 0 0 416.9 46.0 A 18.5 18.5 0 0 0 454.0 46.0 A 17.8 17.8 0 0 0 454.0 81.5 A 17.8 17.8 0 0 0 454.0 117.0 A 17.8 17.8 0 0 0 454.0 152.5 A 17.8 17.8 0 0 0 454.0 188.0 A 17.8 17.8 0 0 0 454.0 223.5 A 17.8 17.8 0 0 0 454.0 259.0 A 17.8 17.8 0 0 0 454.0 294.5 A 17.8 17.8 0 0 0 454.0 330.0 A 17.8 17.8 0 0 0 454.0 365.5 A 17.8 17.8 0 0 0 454.0 401.0 A 17.8 17.8 0 0 0 454.0 436.5 A 17.8 17.8 0 0 0 454.0 472.0 A 17.8 17.8 0 0 0 454.0 507.5 A 17.8 17.8 0 0 0 454.0 543.0 A 17.8 17.8 0 0 0 454.0 578.5 A 17.8 17.8 0 0 0 454.0 614.0 A 18.5 18.5 0 0 0 416.9 614.0 A 18.5 18.5 0 0 0 379.8 614.0 A 18.5 18.5 0 0 0 342.7 614.0 A 18.5 18.5 0 0 0 305.6 614.0 A 18.5 18.5 0 0 0 268.5 614.0 A 18.5 18.5 0 0 0 231.5 614.0 A 18.5 18.5 0 0 0 194.4 614.0 A 18.5 18.5 0 0 0 157.3 614.0 A 18.5 18.5 0 0 0 120.2 614.0 A 18.5 18.5 0 0 0 83.1 614.0 A 18.5 18.5 0 0 0 46.0 614.0 A 17.8 17.8 0 0 0 46.0 578.5 A 17.8 17.8 0 0 0 46.0 543.0 A 17.8 17.8 0 0 0 46.0 507.5 A 17.8 17.8 0 0 0 46.0 472.0 A 17.8 17.8 0 0 0 46.0 436.5 A 17.8 17.8 0 0 0 46.0 401.0 A 17.8 17.8 0 0 0 46.0 365.5 A 17.8 17.8 0 0 0 46.0 330.0 A 17.8 17.8 0 0 0 46.0 294.5 A 17.8 17.8 0 0 0 46.0 259.0 A 17.8 17.8 0 0 0 46.0 223.5 A 17.8 17.8 0 0 0 46.0 188.0 A 17.8 17.8 0 0 0 46.0 152.5 A 17.8 17.8 0 0 0 46.0 117.0 A 17.8 17.8 0 0 0 46.0 81.5 A 17.8 17.8 0 0 0 46.0 46.0 Z" fill="#f2a7c0" stroke="#fdf4e3" stroke-width="5" stroke-linejoin="round"/>
  <path d="M 66.0 66.0 A 15.3 15.3 0 0 0 96.7 66.0 A 15.3 15.3 0 0 0 127.3 66.0 A 15.3 15.3 0 0 0 158.0 66.0 A 15.3 15.3 0 0 0 188.7 66.0 A 15.3 15.3 0 0 0 219.3 66.0 A 15.3 15.3 0 0 0 250.0 66.0 A 15.3 15.3 0 0 0 280.7 66.0 A 15.3 15.3 0 0 0 311.3 66.0 A 15.3 15.3 0 0 0 342.0 66.0 A 15.3 15.3 0 0 0 372.7 66.0 A 15.3 15.3 0 0 0 403.3 66.0 A 15.3 15.3 0 0 0 434.0 66.0 A 14.7 14.7 0 0 0 434.0 95.3 A 14.7 14.7 0 0 0 434.0 124.7 A 14.7 14.7 0 0 0 434.0 154.0 A 14.7 14.7 0 0 0 434.0 183.3 A 14.7 14.7 0 0 0 434.0 212.7 A 14.7 14.7 0 0 0 434.0 242.0 A 14.7 14.7 0 0 0 434.0 271.3 A 14.7 14.7 0 0 0 434.0 300.7 A 14.7 14.7 0 0 0 434.0 330.0 A 14.7 14.7 0 0 0 434.0 359.3 A 14.7 14.7 0 0 0 434.0 388.7 A 14.7 14.7 0 0 0 434.0 418.0 A 14.7 14.7 0 0 0 434.0 447.3 A 14.7 14.7 0 0 0 434.0 476.7 A 14.7 14.7 0 0 0 434.0 506.0 A 14.7 14.7 0 0 0 434.0 535.3 A 14.7 14.7 0 0 0 434.0 564.7 A 14.7 14.7 0 0 0 434.0 594.0 A 15.3 15.3 0 0 0 403.3 594.0 A 15.3 15.3 0 0 0 372.7 594.0 A 15.3 15.3 0 0 0 342.0 594.0 A 15.3 15.3 0 0 0 311.3 594.0 A 15.3 15.3 0 0 0 280.7 594.0 A 15.3 15.3 0 0 0 250.0 594.0 A 15.3 15.3 0 0 0 219.3 594.0 A 15.3 15.3 0 0 0 188.7 594.0 A 15.3 15.3 0 0 0 158.0 594.0 A 15.3 15.3 0 0 0 127.3 594.0 A 15.3 15.3 0 0 0 96.7 594.0 A 15.3 15.3 0 0 0 66.0 594.0 A 14.7 14.7 0 0 0 66.0 564.7 A 14.7 14.7 0 0 0 66.0 535.3 A 14.7 14.7 0 0 0 66.0 506.0 A 14.7 14.7 0 0 0 66.0 476.7 A 14.7 14.7 0 0 0 66.0 447.3 A 14.7 14.7 0 0 0 66.0 418.0 A 14.7 14.7 0 0 0 66.0 388.7 A 14.7 14.7 0 0 0 66.0 359.3 A 14.7 14.7 0 0 0 66.0 330.0 A 14.7 14.7 0 0 0 66.0 300.7 A 14.7 14.7 0 0 0 66.0 271.3 A 14.7 14.7 0 0 0 66.0 242.0 A 14.7 14.7 0 0 0 66.0 212.7 A 14.7 14.7 0 0 0 66.0 183.3 A 14.7 14.7 0 0 0 66.0 154.0 A 14.7 14.7 0 0 0 66.0 124.7 A 14.7 14.7 0 0 0 66.0 95.3 A 14.7 14.7 0 0 0 66.0 66.0 Z" fill="none" stroke="#dd5a52" stroke-width="3.5" stroke-linejoin="round"/>
  <rect x="84" y="84" width="332" height="492" rx="18" fill="#fdf4e3"/>
</svg>